#!OML:ASF F:\VICON\USERDATA\INSTALL\rory7\rory7.ASF
:FULLY-SPECIFIED
:DEGREES
1273
root -5.80963 19.2452 3.66705 -183.361 -78.8778 181.663
lowerback 11.0421 2.17136 -2.40836
upperback 0.0242864 2.5882 0.511816
thorax -6.30539 1.3413 1.47145
lowerneck -2.98449 0.475354 -5.18178
upperneck -21.6247 0.603108 5.67946
head -6.07299 -0.0497124 2.70953
rclavicle -9.74355e-015 2.78299e-015
rhumerus 62.0251 -30.2268 -31.6939
rradius 46.9344
rwrist 17.1012
rhand -45.2171 7.5714
rfingers 7.12502
rthumb -17.9925 -21.6163
lclavicle -9.74355e-015 2.78299e-015
lhumerus 9.42046 0.964036 15.3002
lradius 74.9668
lwrist 2.22827
lhand -28.1699 21.2644
lfingers 7.12502
lthumb -1.55003 51.2385
rfemur -7.10007 19.2297 18.8427
rtibia 32.2307
rfoot -7.44396 -0.150944
rtoes -6.10596
lfemur -0.302384 -6.66378 -21.8724
ltibia 24.9579
lfoot -8.04392 13.7915
ltoes -14.5027
1274
root -5.79785 19.1902 3.65208 -181.057 -78.569 179.525
lowerback 10.7859 2.24779 -2.80541
upperback 0.0508791 2.6385 0.376308
thorax -6.14746 1.37456 1.55333
lowerneck -2.71697 0.516671 -4.73716
upperneck -21.9049 0.607547 5.37656
head -6.20804 -0.0696287 2.54146
rclavicle 2.85287e-015 -1.09332e-015
rhumerus 61.6346 -30.6722 -31.6342
rradius 47.1361
rwrist 17.2538
rhand -45.0716 7.26217
rfingers 7.12502
rthumb -17.8525 -21.9384
lclavicle 2.85287e-015 -1.09332e-015
lhumerus 7.39442 -0.169164 16.1897
lradius 74.9556
lwrist 2.54518
lhand -27.8426 21.1146
lfingers 7.12502
lthumb -1.23394 51.0908
rfemur -7.47147 19.1882 18.2677
rtibia 32.4378
rfoot -8.29092 0.111693
rtoes -6.91593
lfemur -0.246743 -6.71797 -22.2981
ltibia 24.6864
lfoot -8.90917 13.9956
ltoes -14.1732
1275
root -5.78482 19.1347 3.635 -181.044 -78.3355 179.704
lowerback 10.6049 2.24567 -2.74493
upperback 0.0480302 2.64708 0.337513
thorax -6.04416 1.37593 1.48359
lowerneck -2.57279 0.588292 -4.60654
upperneck -21.8985 0.726049 5.46484
head -6.23558 -0.0288756 2.54259
rclavicle -2.70223e-015 9.93923e-016
rhumerus 61.4323 -31.1444 -31.7128
rradius 47.198
rwrist 17.3639
rhand -44.9693 7.45717
rfingers 7.12502
rthumb -17.7541 -21.7523
lclavicle -2.70223e-015 9.93923e-016
lhumerus 5.39109 -1.23153 17.0487
lradius 74.8311
lwrist 2.70089
lhand -27.5461 20.1782
lfingers 7.12502
lthumb -0.947507 50.1559
rfemur -7.71963 19.4281 18.2501
rtibia 32.6194
rfoot -9.32915 0.248127
rtoes -6.52947
lfemur -0.180509 -7.15411 -22.2681
ltibia 24.4842
lfoot -10.0788 14.3746
ltoes -12.9786
1276
root -5.77426 19.0748 3.61649 -181.57 -78.1664 180.308
lowerback 10.5269 2.20923 -2.64078
upperback 0.0687038 2.61362 0.333833
thorax -5.97163 1.35559 1.42986
lowerneck -2.50899 0.668053 -4.594
upperneck -21.6933 0.88362 5.69131
head -6.18787 0.0361217 2.60285
rclavicle -1.95089e-014 -1.88845e-015
rhumerus 61.0096 -31.6087 -31.6308
rradius 47.4376
rwrist 17.3075
rhand -45.0281 7.95509
rfingers 7.12502
rthumb -17.8107 -21.2493
lclavicle -1.95089e-014 -1.88845e-015
lhumerus 3.42582 -2.16961 17.9755
lradius 74.6185
lwrist 2.64241
lhand -27.0504 19.4088
lfingers 7.12502
lthumb -0.46872 49.388
rfemur -7.78174 19.543 18.4015
rtibia 32.7842
rfoot -10.4602 0.479555
rtoes -5.27051
lfemur -0.0454566 -7.3859 -22.1364
ltibia 24.3182
lfoot -11.0208 14.6202
ltoes -12.8583
1277
root -5.76289 19.0106 3.59612 -178.936 -78.0396 177.56
lowerback 10.5383 2.23486 -3.39443
upperback 0.149201 2.54798 0.242697
thorax -5.92018 1.34105 1.76946
lowerneck -2.37154 0.741633 -4.51045
upperneck -21.6571 0.982322 5.65261
head -6.20467 0.0808212 2.57104
rclavicle 5.35476e-015 -2.68359e-015
rhumerus 60.6385 -32.0645 -31.5527
rradius 47.7304
rwrist 17.3208
rhand -45.209 8.26858
rfingers 7.12502
rthumb -17.9848 -20.9199
lclavicle 5.35476e-015 -2.68359e-015
lhumerus 1.43991 -3.05332 19.0956
lradius 74.4876
lwrist 2.555
lhand -26.5287 19.6078
lfingers 7.12502
lthumb 0.0351243 49.5876
rfemur -7.65901 19.4566 17.8189
rtibia 32.8768
rfoot -11.5727 0.841427
rtoes -4.16449
lfemur 0.123383 -7.27193 -22.7691
ltibia 24.2903
lfoot -11.696 14.8509
ltoes -14.144
1278
root -5.7507 18.9484 3.57927 -177.102 -77.9057 175.608
lowerback 10.5691 2.23733 -3.93097
upperback 0.269432 2.47785 0.16303
thorax -5.82684 1.31586 2.00016
lowerneck -2.29033 0.825974 -4.34213
upperneck -21.7251 1.08654 5.57168
head -6.24517 0.120704 2.51277
rclavicle 1.47194e-014 -6.75868e-015
rhumerus 60.4738 -32.6179 -31.7993
rradius 48.1275
rwrist 17.4011
rhand -45.1951 7.95786
rfingers 7.12502
rthumb -17.9714 -21.2318
lclavicle 1.47194e-014 -6.75868e-015
lhumerus -0.526969 -3.78523 20.2615
lradius 74.4062
lwrist 2.41462
lhand -26.3531 19.3516
lfingers 7.12502
lthumb 0.204738 49.3312
rfemur -7.47413 19.2186 17.4337
rtibia 32.8926
rfoot -12.6077 1.12302
rtoes -4.37878
lfemur 0.290951 -7.40805 -23.3059
ltibia 24.3696
lfoot -12.6927 15.2967
ltoes -14.4278
1279
root -5.73815 18.8925 3.56384 -179.012 -77.7886 177.402
lowerback 10.7117 2.18874 -3.56801
upperback 0.412927 2.45247 0.197901
thorax -5.73926 1.28922 1.83541
lowerneck -2.21377 0.883316 -4.0593
upperneck -21.8779 1.17126 5.58789
head -6.30992 0.131786 2.46874
rclavicle -3.02525e-015 -1.49089e-015
rhumerus 60.1282 -33.2885 -32.0467
rradius 48.6525
rwrist 17.3387
rhand -45.2261 7.67811
rfingers 7.12502
rthumb -18.0012 -21.5088
lclavicle -3.02525e-015 -1.49089e-015
lhumerus -2.38444 -4.40334 21.3561
lradius 74.3492
lwrist 2.15497
lhand -26.4463 18.7615
lfingers 7.12502
lthumb 0.114707 48.7413
rfemur -7.18645 19.0076 17.9887
rtibia 32.8306
rfoot -13.5495 1.20331
rtoes -4.46772
lfemur 0.506136 -7.65628 -22.9982
ltibia 24.5271
lfoot -13.9402 15.6884
ltoes -13.2492
1280
root -5.72282 18.8362 3.54566 -181.906 -77.6956 180.11
lowerback 11.0274 2.12244 -3.01777
upperback 0.537907 2.42249 0.267689
thorax -5.76187 1.25762 1.59674
lowerneck -2.15927 0.92336 -3.93142
upperneck -22.0054 1.25485 5.75829
head -6.36347 0.143973 2.50067
rclavicle -1.74185e-014 -1.09332e-015
rhumerus 59.8218 -33.8397 -32.582
rradius 49.0827
rwrist 17.4816
rhand -45.4129 7.76138
rfingers 7.12502
rthumb -18.1809 -21.4089
lclavicle -1.74185e-014 -1.09332e-015
lhumerus -4.22427 -5.04721 22.4832
lradius 74.3762
lwrist 1.88657
lhand -26.6127 19.086
lfingers 7.12502
lthumb -0.0460001 49.0657
rfemur -6.74541 18.8972 18.862
rtibia 32.6116
rfoot -14.3117 1.08259
rtoes -4.37216
lfemur 0.617694 -7.45046 -22.4024
ltibia 24.9077
lfoot -14.8927 16.004
ltoes -13.5053
1281
root -5.70771 18.7771 3.528 -185.056 -77.5791 183.002
lowerback 11.4164 2.06616 -2.44832
upperback 0.690647 2.41099 0.384153
thorax -5.7988 1.23463 1.39144
lowerneck -2.1075 0.98309 -3.72821
upperneck -22.1712 1.34333 5.78979
head -6.42904 0.161023 2.47516
rclavicle -3.05631e-014 7.65321e-015
rhumerus 59.8938 -34.2734 -33.8662
rradius 49.6337
rwrist 18.2051
rhand -45.4907 7.57734
rfingers 7.12502
rthumb -18.2558 -21.586
lclavicle -3.05631e-014 7.65321e-015
lhumerus -6.05207 -5.57392 23.8518
lradius 74.4258
lwrist 1.38332
lhand -26.849 19.1966
lfingers 7.12502
lthumb -0.274216 49.1761
rfemur -6.14137 18.8564 19.8748
rtibia 32.2521
rfoot -15.0246 0.689905
rtoes -4.58364
lfemur 0.698659 -7.25603 -21.7821
ltibia 25.5008
lfoot -15.9905 16.4763
ltoes -13.6925
1282
root -5.69443 18.7231 3.50803 -189.243 -77.3513 186.803
lowerback 11.8964 2.03508 -1.71249
upperback 0.920425 2.45808 0.567828
thorax -5.80322 1.23488 1.15185
lowerneck -1.8952 1.0427 -3.1401
upperneck -22.5788 1.39318 5.54539
head -6.59601 0.139328 2.3
rclavicle -5.29637e-014 1.78906e-015
rhumerus 60.0226 -34.8205 -35.3139
rradius 50.3873
rwrist 19.0581
rhand -45.5142 7.0395
rfingers 7.12502
rthumb -18.2784 -22.1217
lclavicle -5.29637e-014 1.78906e-015
lhumerus -7.81812 -5.88703 25.423
lradius 74.5284
lwrist 0.775838
lhand -26.9782 19.0066
lfingers 7.12502
lthumb -0.399023 48.986
rfemur -5.35374 18.9983 21.2752
rtibia 31.9237
rfoot -15.6936 -0.0344882
rtoes -5.31336
lfemur 1.02517 -7.3347 -20.953
ltibia 26.0942
lfoot -17.5196 16.758
ltoes -11.7235
1283
root -5.68089 18.6822 3.48246 -193.74 -77.0813 190.929
lowerback 12.3824 1.99056 -0.956717
upperback 1.1497 2.49509 0.762496
thorax -5.80944 1.22993 0.913792
lowerneck -1.77015 1.06176 -2.64291
upperneck -22.9722 1.41626 5.48638
head -6.74345 0.0967972 2.20172
rclavicle 1.42876e-015 6.95746e-015
rhumerus 59.1341 -35.6055 -35.4727
rradius 51.6434
rwrist 18.7238
rhand -45.6423 6.46884
rfingers 7.12502
rthumb -18.4016 -22.6808
lclavicle 1.42876e-015 6.95746e-015
lhumerus -9.56584 -5.93238 27.2257
lradius 74.6712
lwrist 0.415525
lhand -26.8392 19.1985
lfingers 7.12502
lthumb -0.264819 49.1781
rfemur -4.63694 19.4638 22.9023
rtibia 31.7863
rfoot -16.2349 -1.19522
rtoes -6.44833
lfemur 1.39721 -7.32949 -19.9723
ltibia 26.5204
lfoot -18.7347 16.9624
ltoes -10.246
1284
root -5.66361 18.6524 3.4573 -195.6 -76.994 192.677
lowerback 12.6739 1.98644 -0.805666
upperback 1.25099 2.50569 0.821311
thorax -5.86107 1.22886 0.881518
lowerneck -1.75556 1.0214 -2.42337
upperneck -23.2943 1.38639 5.64816
head -6.84887 0.0366195 2.22482
rclavicle -5.10628e-014 6.55989e-015
rhumerus 56.7265 -36.7275 -33.6339
rradius 53.5459
rwrist 16.7813
rhand -45.7533 5.70127
rfingers 7.12502
rthumb -18.5084 -23.4382
lclavicle -5.10628e-014 6.55989e-015
lhumerus -11.1556 -5.80047 29.2282
lradius 74.658
lwrist 0.282579
lhand -26.6299 19.177
lfingers 7.12502
lthumb -0.0626497 49.1568
rfemur -4.45643 19.9569 23.7973
rtibia 31.9239
rfoot -16.7196 -2.43205
rtoes -7.26576
lfemur 1.41319 -7.19267 -19.5291
ltibia 26.7316
lfoot -19.4124 17.2633
ltoes -9.52671
1285
root -5.64096 18.6274 3.43477 -192.656 -77.1373 189.91
lowerback 12.6767 2.09001 -1.7083
upperback 1.20385 2.50372 0.576533
thorax -5.94064 1.24864 1.13172
lowerneck -1.67984 0.946843 -2.18564
upperneck -23.6581 1.3092 5.79315
head -6.97697 -0.0486961 2.24293
rclavicle 2.69353e-014 5.1684e-015
rhumerus 55.2184 -37.4351 -33.2259
rradius 55.1318
rwrist 16.251
rhand -45.9851 5.46913
rfingers 7.12502
rthumb -18.7314 -23.649
lclavicle 2.69353e-014 5.1684e-015
lhumerus -12.6111 -5.81004 31.0012
lradius 74.6174
lwrist 0.487821
lhand -26.6606 19.0865
lfingers 7.12502
lthumb -0.0922391 49.0662
rfemur -4.93859 20.1838 23.2865
rtibia 32.3063
rfoot -17.2489 -3.29562
rtoes -7.13289
lfemur 1.01723 -6.87554 -20.1463
ltibia 26.7852
lfoot -19.8098 17.412
ltoes -8.46224
1286
root -5.6137 18.606 3.41948 -187.577 -77.2985 185.161
lowerback 12.5076 2.19662 -2.98094
upperback 1.09272 2.44828 0.168928
thorax -5.99855 1.25122 1.43235
lowerneck -1.67238 0.865535 -1.88701
upperneck -23.9019 1.23191 5.96425
head -7.05424 -0.137906 2.25732
rclavicle -2.11209e-014 7.95139e-016
rhumerus 53.5185 -38.1181 -32.9251
rradius 56.9321
rwrist 15.9171
rhand -46.2567 5.58522
rfingers 7.12502
rthumb -18.9925 -23.5075
lclavicle -2.11209e-014 7.95139e-016
lhumerus -14.1634 -5.95471 32.6245
lradius 74.7868
lwrist 1.00396
lhand -26.9116 19.7417
lfingers 7.12502
lthumb -0.334664 49.7212
rfemur -5.76521 20.111 22.1374
rtibia 32.8234
rfoot -17.7649 -3.88282
rtoes -6.43048
lfemur 0.416888 -6.49954 -21.2127
ltibia 26.7842
lfoot -19.9327 17.4903
ltoes -7.84117
